HIERARCHY
ROOT SpineBase
{
  OFFSET 0.000000 0.000000 0.000000
  CHANNELS 6 Xposition Yposition Zposition Zrotation Xrotation Yrotation
  JOINT SpineMid
  {
    OFFSET 0.000000 29.173991 0.000000
    CHANNELS 3 Zrotation Xrotation Yrotation
    JOINT SpineShoulder
    {
      OFFSET -0.054971 21.691431 -0.695472
      CHANNELS 3 Zrotation Xrotation Yrotation
      JOINT Neck
      {
        OFFSET -0.092347 7.212026 -0.532995
        CHANNELS 3 Zrotation Xrotation Yrotation
        JOINT Head
        {
          OFFSET 8.349419 9.865770 -1.311972
          CHANNELS 3 Zrotation Xrotation Yrotation
          End Site
          {
            OFFSET 0 0 0
          }
        }
      }
      JOINT ShoulderLeft
      {
        OFFSET -9.944234 -2.038121 -10.820450
        CHANNELS 3 Zrotation Xrotation Yrotation
        JOINT ElbowLeft
        {
          OFFSET -4.094465 -22.376999 -5.087298
          CHANNELS 3 Zrotation Xrotation Yrotation
          JOINT WristLeft
          {
            OFFSET 2.480003 -19.683877 -2.751263
            CHANNELS 3 Zrotation Xrotation Yrotation
            JOINT HandLeft
            {
              OFFSET 0.283007 -8.456434 -0.364519
              CHANNELS 3 Zrotation Xrotation Yrotation
              JOINT HandTipLeft
              {
                OFFSET 0.526053 -6.365414 -0.616308
                CHANNELS 3 Zrotation Xrotation Yrotation
                End Site
                {
                  OFFSET 0 0 0
                }
              }
              JOINT ThumbLeft
              {
                OFFSET -4.193404 0.377822 -0.280127
                CHANNELS 3 Zrotation Xrotation Yrotation
                End Site
                {
                  OFFSET 0 0 0
                }
              }
            }
          }
        }
      }
      JOINT ShoulderRight
      {
        OFFSET 10.398503 -7.161122 8.096192
        CHANNELS 3 Zrotation Xrotation Yrotation
        JOINT ElbowRight
        {
          OFFSET 5.829110 -18.401567 12.755238
          CHANNELS 3 Zrotation Xrotation Yrotation
          JOINT WristRight
          {
            OFFSET 0.238293 21.385508 -5.301731
            CHANNELS 3 Zrotation Xrotation Yrotation
            JOINT HandRight
            {
              OFFSET 3.616677 2.972187 -4.321642
              CHANNELS 3 Zrotation Xrotation Yrotation
              JOINT HandTipRight
              {
                OFFSET -0.254945 -0.213180 -1.651182
                CHANNELS 3 Zrotation Xrotation Yrotation
                End Site
                {
                  OFFSET 0 0 0
                }
              }
              JOINT ThumbRight
              {
                OFFSET -0.132977 -0.535163 -3.125208
                CHANNELS 3 Zrotation Xrotation Yrotation
                End Site
                {
                  OFFSET 0 0 0
                }
              }
            }
          }
        }
      }
    }
  }
  JOINT HipLeft
  {
    OFFSET -5.233396 2.323201 -7.115280
    CHANNELS 3 Zrotation Xrotation Yrotation
    JOINT KneeLeft
    {
      OFFSET -8.363690 -29.867876 -0.448173
      CHANNELS 3 Zrotation Xrotation Yrotation
      JOINT AnkleLeft
      {
        OFFSET -8.476966 -32.000049 1.676293
        CHANNELS 3 Zrotation Xrotation Yrotation
        JOINT FootLeft
        {
          OFFSET 2.192723 -6.663747 -2.551544
          CHANNELS 3 Zrotation Xrotation Yrotation
          End Site
          {
            OFFSET 0 0 0
          }
        }
      }
    }
  }
  JOINT HipRight
  {
    OFFSET 4.333160 0.086771 1.182942
    CHANNELS 3 Zrotation Xrotation Yrotation
    JOINT KneeRight
    {
      OFFSET 1.414377 -32.173878 12.591403
      CHANNELS 3 Zrotation Xrotation Yrotation
      JOINT AnkleRight
      {
        OFFSET -7.314324 -27.621435 8.043058
        CHANNELS 3 Zrotation Xrotation Yrotation
        JOINT FootRight
        {
          OFFSET 5.168386 -4.771659 -0.577174
          CHANNELS 3 Zrotation Xrotation Yrotation
          End Site
          {
            OFFSET 0 0 0
          }
        }
      }
    }
  }
}
MOTION
Frames: 14
Frame Time: 0.033333
32.158050 62.884256 257.188073 0.870184 -31.445634 -21.094315 0.204831 0.141562 21.223327 -0.148755 0.520135 -0.246995 31.265333 21.629201 -2.752419 0.000000 0.000000 0.000000 -7.851704 25.739677 6.104537 -5.256267 -7.924300 -2.982557 -5.195176 -5.100744 0.082665 28.028388 1.873831 -7.162126 0.000000 0.000000 0.000000 0.000000 0.000000 0.000000 -15.374091 42.432513 5.551607 97.408263 -36.123270 63.890602 1.265924 58.848300 40.741784 -43.880663 -0.111593 1.076552 0.000000 0.000000 0.000000 0.000000 0.000000 0.000000 -7.860219 22.723580 24.477816 13.341649 -8.846462 3.437465 57.198804 82.557265 -51.063288 0.000000 0.000000 0.000000 -2.697616 12.703963 21.283066 10.894879 -2.930018 7.895330 -12.789838 34.645447 6.149774 0.000000 0.000000 0.000000
31.324542 62.646274 256.366175 1.029941 -31.893192 -18.689060 0.139366 0.222462 18.878689 -0.184324 0.550030 -0.238774 32.759690 20.773878 -1.987525 0.000000 0.000000 0.000000 -7.052825 27.041071 5.413668 -7.430536 -10.776192 -3.076243 -3.156159 -4.506051 0.019937 24.798483 3.905152 -6.714515 0.000000 0.000000 0.000000 0.000000 0.000000 0.000000 -13.999069 40.928818 4.603654 96.992467 -35.200447 62.589736 -2.361599 58.571895 42.919925 -43.112626 -0.214850 -0.548977 0.000000 0.000000 0.000000 0.000000 0.000000 0.000000 -5.817523 22.963657 21.666229 12.693005 -8.186661 3.156865 -22.054243 84.410851 24.961794 0.000000 0.000000 0.000000 -2.489829 13.200425 18.923871 12.435676 -7.174975 9.801374 -16.722264 32.869839 -0.002746 0.000000 0.000000 0.000000
30.554797 62.338561 255.702529 1.172226 -32.296750 -16.558080 0.043908 0.356032 16.808890 -0.261443 0.668592 -0.221650 34.714917 19.739073 -1.253415 0.000000 0.000000 0.000000 -5.809256 27.212416 4.580500 -9.688936 -12.688107 -3.200299 -0.037308 -4.622477 -0.392205 18.822187 7.268502 -5.445594 0.000000 0.000000 0.000000 0.000000 0.000000 0.000000 -14.202511 41.514781 4.899695 94.980327 -34.913002 60.911643 -3.284367 56.525104 44.305818 -32.330196 21.650732 5.906918 0.000000 0.000000 0.000000 0.000000 0.000000 0.000000 -3.227893 23.052454 18.867922 10.121160 -6.701900 2.531027 -42.209833 75.430905 42.431252 0.000000 0.000000 0.000000 -2.420675 13.737765 16.843189 14.361052 -11.414502 11.897684 -19.128430 37.576477 0.648928 0.000000 0.000000 0.000000
29.874385 62.039596 255.233876 1.354010 -32.828376 -14.684527 -0.089683 0.433395 15.027903 -0.354601 0.762985 -0.203190 36.972661 19.556891 -1.782627 0.000000 0.000000 0.000000 -3.604331 28.380557 2.974703 -13.411942 -14.569431 -2.922925 4.097240 -7.261050 -1.583431 10.755493 11.707773 -3.132036 0.000000 0.000000 0.000000 0.000000 0.000000 0.000000 -13.343970 41.653111 4.844396 89.594317 -35.692939 57.043839 -2.770960 53.838041 44.461602 -3.019505 58.127162 -19.026526 0.000000 0.000000 0.000000 0.000000 0.000000 0.000000 -0.100628 23.281468 15.995500 5.261761 -4.364757 1.733553 -28.886794 62.923353 27.650618 0.000000 0.000000 0.000000 -1.888060 13.835200 14.984325 15.654242 -13.980509 13.393668 -27.309043 41.062809 5.784035 0.000000 0.000000 0.000000
29.272731 61.748107 254.871979 1.507633 -33.271855 -14.121713 -0.011140 0.397785 14.502732 -0.331836 0.774064 -0.204933 39.046015 19.566938 -2.503905 0.000000 0.000000 0.000000 -2.446419 27.243445 2.367947 -15.191303 -15.225632 -3.090082 7.823963 -4.560134 -1.852767 3.722588 10.991980 -0.762257 0.000000 0.000000 0.000000 0.000000 0.000000 0.000000 -13.655432 43.329043 5.704182 88.684082 -35.994967 56.992487 -3.702083 52.034300 45.755692 44.300654 63.860056 -70.299421 0.000000 0.000000 0.000000 0.000000 0.000000 0.000000 2.937686 23.269501 14.339903 -0.172210 -1.765968 1.105581 -22.442842 45.587514 18.325710 0.000000 0.000000 0.000000 -1.786139 14.202120 14.490090 17.252743 -17.447104 15.375335 -33.389382 51.910364 19.811830 0.000000 0.000000 0.000000
28.801787 61.503824 254.698233 1.843106 -33.845396 -14.210056 0.078142 0.314555 14.690909 -0.275158 0.710877 -0.210446 40.034998 20.382776 -3.909962 0.000000 0.000000 0.000000 -1.294366 25.609150 1.823962 -16.064651 -14.946713 -3.084640 9.191628 -3.137959 -1.884281 3.649862 10.885045 -1.081888 0.000000 0.000000 0.000000 0.000000 0.000000 0.000000 -13.229274 44.621425 6.270370 87.703930 -36.138370 56.756689 -4.356789 51.243061 46.782674 52.236338 62.598107 -79.163413 0.000000 0.000000 0.000000 0.000000 0.000000 0.000000 5.792332 23.432468 13.292545 -6.080586 0.980539 0.727182 -13.246891 26.817398 7.154542 0.000000 0.000000 0.000000 -2.002972 14.715355 14.776324 18.873118 -20.414793 17.265580 -44.002992 58.013193 34.083418 0.000000 0.000000 0.000000
28.414349 61.330721 254.589907 2.252978 -34.378738 -14.636475 0.073976 0.310802 15.262663 -0.297274 0.730390 -0.197271 40.798025 20.938440 -4.963968 0.000000 0.000000 0.000000 -0.323477 24.190915 1.378711 -16.224654 -14.857748 -3.132851 9.786900 -1.923171 -1.781121 5.232512 10.178133 -2.090962 0.000000 0.000000 0.000000 0.000000 0.000000 0.000000 -12.700585 45.703227 6.716306 87.550378 -35.769196 56.917535 -2.201031 52.519947 47.243510 66.128586 56.682030 -97.752014 0.000000 0.000000 0.000000 0.000000 0.000000 0.000000 9.904034 23.748059 11.884901 -14.381743 3.492816 0.969655 -6.428408 6.294898 -1.765920 0.000000 0.000000 0.000000 -2.445204 15.235377 15.466772 20.763905 -23.241224 19.292752 -54.859543 62.631623 48.026940 0.000000 0.000000 0.000000
28.036149 61.192970 254.497704 2.546326 -34.773732 -16.182494 0.099490 0.331743 16.904089 -0.328289 0.745160 -0.182774 41.268179 21.195986 -5.464519 0.000000 0.000000 0.000000 0.998138 22.363229 0.796901 -16.487098 -13.976881 -2.929844 10.221562 -1.150951 -1.706459 5.015472 9.944491 -2.287098 0.000000 0.000000 0.000000 0.000000 0.000000 0.000000 -11.903690 46.367910 6.903660 87.528886 -35.131780 56.962050 -3.272671 51.093847 51.558709 73.136657 54.689639 -101.702955 0.000000 0.000000 0.000000 0.000000 0.000000 0.000000 11.461646 23.615761 12.847447 -17.704608 5.601638 0.985225 -4.057809 1.211321 -3.922289 0.000000 0.000000 0.000000 -3.177152 15.764310 17.271649 22.271163 -25.704046 21.079219 -61.610451 69.053482 60.237774 0.000000 0.000000 0.000000
27.723805 61.042437 254.459673 2.731663 -35.000339 -18.344200 0.388194 0.248953 19.064397 -0.313637 0.725136 -0.174069 41.114944 21.597739 -5.840654 0.000000 0.000000 0.000000 1.492898 21.757724 0.455080 -15.497070 -13.968610 -3.041900 9.607791 -0.870439 -1.313767 3.335486 9.624798 -1.841829 0.000000 0.000000 0.000000 0.000000 0.000000 0.000000 -11.416946 46.824917 7.024622 90.127396 -33.185123 58.411947 -10.743879 45.503844 60.717195 63.028256 61.547539 -78.951148 0.000000 0.000000 0.000000 0.000000 0.000000 0.000000 10.514757 23.507620 15.493424 -17.463976 6.929497 0.701840 2.789453 2.648759 -6.391628 0.000000 0.000000 0.000000 -3.895198 16.151300 19.651173 23.030658 -27.410309 22.264200 -62.453033 75.338859 65.434275 0.000000 0.000000 0.000000
27.484873 60.976374 254.394144 2.957388 -35.178896 -22.147201 0.516809 0.320612 22.905193 -0.255650 0.710003 -0.176855 41.103586 21.756119 -6.041952 0.000000 0.000000 0.000000 1.231781 20.364235 0.791145 -13.431174 -13.642562 -3.560282 7.769486 -0.427132 -0.498510 5.982780 9.521585 -3.109099 0.000000 0.000000 0.000000 0.000000 0.000000 0.000000 -11.107463 46.776248 6.960084 93.352274 -30.529412 59.802990 -20.596616 30.725218 73.743210 31.692909 57.071517 -26.605904 0.000000 0.000000 0.000000 0.000000 0.000000 0.000000 5.838663 23.260446 21.304814 -11.689756 6.413112 -0.004377 11.846306 26.544175 -6.854749 0.000000 0.000000 0.000000 -4.933557 16.324732 23.744312 22.775540 -28.225444 22.631082 -67.756476 78.517875 74.080395 0.000000 0.000000 0.000000
27.664485 61.207526 254.447315 3.778862 -35.531822 -26.346158 0.273839 0.384679 27.445963 -0.212913 0.808184 -0.172807 41.000359 21.740582 -5.964867 0.000000 0.000000 0.000000 1.835608 20.252958 0.163328 -13.598213 -14.642321 -3.544576 9.188897 0.426229 -0.781589 2.471382 10.672224 -1.906461 0.000000 0.000000 0.000000 0.000000 0.000000 0.000000 -10.977649 46.131056 6.672780 95.902164 -27.672063 60.126802 -29.894803 8.623817 82.650577 26.296216 33.246049 -1.370933 0.000000 0.000000 0.000000 0.000000 0.000000 0.000000 0.925129 22.226970 27.797209 -7.367072 7.004423 -0.843458 45.842485 50.939020 -28.191226 0.000000 0.000000 0.000000 -7.044730 16.304562 28.633382 21.485913 -27.649461 21.768024 -62.575824 79.881135 71.514736 0.000000 0.000000 0.000000
28.051180 61.551793 254.532946 4.923486 -35.966061 -29.989880 -0.248137 0.421922 31.615952 -0.180589 0.981248 -0.167572 41.045759 21.620266 -5.902516 0.000000 0.000000 0.000000 2.321907 21.714182 -0.796238 -13.529481 -17.663160 -3.619401 10.678459 1.348352 -1.141488 0.670666 10.134681 -1.561722 0.000000 0.000000 0.000000 0.000000 0.000000 0.000000 -10.893384 45.347655 6.377388 96.642348 -25.827914 59.363270 -39.161916 -6.911819 81.782777 27.812836 14.836634 0.325113 0.000000 0.000000 0.000000 0.000000 0.000000 0.000000 -4.240489 20.955184 33.675984 -2.854375 6.456645 -1.410131 96.839554 55.336955 -70.206195 0.000000 0.000000 0.000000 -9.330696 15.965998 33.108637 20.484643 -27.438522 21.216285 -49.030664 80.219960 58.146593 0.000000 0.000000 0.000000
28.597412 61.977224 254.672358 6.243603 -36.390128 -32.922172 -0.827478 0.370946 35.162039 -0.177057 1.163763 -0.154659 41.140923 21.494600 -5.887729 0.000000 0.000000 0.000000 3.377061 21.968394 -1.907707 -13.590947 -18.009580 -3.164614 10.736987 1.129991 -1.039365 -0.323440 10.034292 -1.335387 0.000000 0.000000 0.000000 0.000000 0.000000 0.000000 -12.161888 45.841837 6.898010 97.452594 -24.892059 59.670943 -48.296329 -14.246843 75.648256 30.600951 8.138758 1.408252 0.000000 0.000000 0.000000 0.000000 0.000000 0.000000 -8.496936 18.103290 38.955263 2.267164 8.188918 -2.924064 105.407031 55.842887 -78.961454 0.000000 0.000000 0.000000 -11.579786 15.348626 36.903591 19.130349 -26.586357 20.199274 -41.040879 78.476989 50.058663 0.000000 0.000000 0.000000
29.283915 62.529424 254.857596 7.669745 -36.797867 -34.239205 -1.323525 0.234853 37.135321 -0.216098 1.278534 -0.128108 41.187376 21.453901 -5.893257 0.000000 0.000000 0.000000 3.799701 24.075909 -3.054032 -12.441238 -20.082010 -2.897208 10.653253 0.965411 -0.828046 0.753293 10.126621 -2.087396 0.000000 0.000000 0.000000 0.000000 0.000000 0.000000 -12.160745 45.051839 6.599769 95.074028 -25.677957 57.763129 -53.131095 -12.094787 68.719932 29.603961 10.581345 3.990915 0.000000 0.000000 0.000000 0.000000 0.000000 0.000000 -12.279091 16.066846 42.057302 6.377706 7.892311 -3.565338 101.604298 56.818671 -77.516551 0.000000 0.000000 0.000000 -13.696668 14.682931 39.072951 18.106776 -25.617411 19.226784 -43.568103 73.816335 50.244563 0.000000 0.000000 0.000000
